<?xml version="1.0" standalone="no"?>
<!DOCTYPE svg PUBLIC "-//W3C//DTD SVG 20010904//EN"
 "http://www.w3.org/TR/2001/REC-SVG-20010904/DTD/svg10.dtd">
<svg version="1.0" xmlns="http://www.w3.org/2000/svg"
 width="1024.000000pt" height="1024.000000pt" viewBox="0 0 1024.000000 1024.000000"
 preserveAspectRatio="xMidYMid meet">
<metadata>
Created by potrace 1.11, written by Peter Selinger 2001-2013
</metadata>
<g transform="translate(0.000000,1024.000000) scale(0.100000,-0.100000)"
fill="#000000" stroke="none">
<path d="M5 10228 c-3 -7 -4 -2310 -3 -5118 l3 -5105 5115 0 5115 0 0 5115 0
5115 -5113 3 c-4085 2 -5114 0 -5117 -10z m5479 -3027 c478 -96 804 -371 921
-775 38 -134 49 -216 48 -381 0 -206 -29 -330 -119 -511 -98 -196 -323 -451
-527 -596 -148 -106 -246 -206 -291 -298 -42 -88 -55 -146 -64 -290 l-7 -105
-407 -3 -408 -2 0 81 c0 110 26 277 58 374 14 44 47 111 73 150 56 83 231 257
379 375 273 218 430 431 476 641 21 100 21 276 -1 358 -46 175 -145 286 -306
342 -52 18 -86 22 -184 23 -181 0 -277 -36 -386 -144 -76 -75 -105 -137 -122
-262 l-11 -78 -400 0 -399 0 6 133 c15 315 137 553 375 732 152 114 337 192
554 234 144 28 156 29 408 26 183 -2 245 -7 334 -24z m-34 -3771 l0 -350 -415
0 -415 0 0 350 0 350 415 0 415 0 0 -350z"/>
</g>
</svg>
